Normalized EMG Linear Envelopes
nRows=111
nColumns=4

endheader
time	 med_gas_r	  soleus_r	 tib_ant_r	
3.07762	  0.027921	  0.018257	  0.008540	
3.14919	  0.027135	  0.017755	  0.008689	
3.22077	  0.026973	  0.017537	  0.008737	
3.29234	  0.027680	  0.017550	  0.008637	
3.36391	  0.028924	  0.017660	  0.008364	
3.43548	  0.029875	  0.017854	  0.008069	
3.50706	  0.029882	  0.018024	  0.008007	
3.57863	  0.029231	  0.017993	  0.008202	
3.6502	  0.028822	  0.017865	  0.008395	
3.72177	  0.029099	  0.017972	  0.008298	
3.79335	  0.029802	  0.018415	  0.007890	
3.86492	  0.030661	  0.019003	  0.007339	
3.93649	  0.031628	  0.019576	  0.006775	
4.00806	  0.032567	  0.019992	  0.006404	
4.07964	  0.033233	  0.020027	  0.006407	
4.15121	  0.033471	  0.019789	  0.006604	
4.22278	  0.033359	  0.019890	  0.006744	
4.29435	  0.033211	  0.020656	  0.006941	
4.36593	  0.033298	  0.021610	  0.007298	
4.4375	  0.033568	  0.022029	  0.007434	
4.50907	  0.033789	  0.021643	  0.006932	
4.58065	  0.033852	  0.020790	  0.005987	
4.65222	  0.033798	  0.020164	  0.005230	
4.72379	  0.033717	  0.020240	  0.005163	
4.79536	  0.033709	  0.020835	  0.005853	
4.86694	  0.033803	  0.021479	  0.006982	
4.93851	  0.033871	  0.021936	  0.008093	
5.01008	  0.033710	  0.022003	  0.008856	
5.08165	  0.033225	  0.021317	  0.009171	
5.15323	  0.032504	  0.019567	  0.008964	
5.2248	  0.031749	  0.016851	  0.008219	
5.29637	  0.031255	  0.014547	  0.007566	
5.36794	  0.031672	  0.016599	  0.008834	
5.43952	  0.034098	  0.029521	  0.014815	
5.51109	  0.039292	  0.058174	  0.027445	
5.58266	  0.046248	  0.097424	  0.044521	
5.65423	  0.052024	  0.131043	  0.059783	
5.72581	  0.054610	  0.147686	  0.069701	
5.79738	  0.055744	  0.155153	  0.078170	
5.86895	  0.058612	  0.168922	  0.090325	
5.94052	  0.063758	  0.192455	  0.104063	
6.0121	  0.069943	  0.219561	  0.112594	
6.08367	  0.076860	  0.245285	  0.113940	
6.15524	  0.083736	  0.261819	  0.112642	
6.22681	  0.088433	  0.259601	  0.113056	
6.29839	  0.091850	  0.245358	  0.115923	
6.36996	  0.098626	  0.240495	  0.120024	
6.44153	  0.110943	  0.253550	  0.123882	
6.5131	  0.128336	  0.274223	  0.127979	
6.58468	  0.152590	  0.296222	  0.135754	
6.65625	  0.184229	  0.322865	  0.148715	
6.72782	  0.215700	  0.349621	  0.161488	
6.7994	  0.235602	  0.364600	  0.166878	
6.87097	  0.239920	  0.364384	  0.164168	
6.94254	  0.232187	  0.352915	  0.156696	
7.01411	  0.216962	  0.338555	  0.146094	
7.08569	  0.205080	  0.336752	  0.135898	
7.15726	  0.214411	  0.353714	  0.132811	
7.22883	  0.252359	  0.377598	  0.138105	
7.3004	  0.305485	  0.399665	  0.146992	
7.37198	  0.350397	  0.422286	  0.157529	
7.44355	  0.375260	  0.444276	  0.170122	
7.51512	  0.388474	  0.459583	  0.181436	
7.58669	  0.401393	  0.468680	  0.186465	
7.65827	  0.414793	  0.478427	  0.183703	
7.72984	  0.426535	  0.490976	  0.175824	
7.80141	  0.434311	  0.500891	  0.166772	
7.87298	  0.431119	  0.503441	  0.159482	
7.94456	  0.415194	  0.497790	  0.156348	
8.01613	  0.398903	  0.483631	  0.157648	
8.0877	  0.396186	  0.462793	  0.159888	
8.15927	  0.412632	  0.442682	  0.161058	
8.23085	  0.449075	  0.434770	  0.163066	
8.30242	  0.495576	  0.448939	  0.165424	
8.37399	  0.525120	  0.484697	  0.164045	
8.44556	  0.516756	  0.527522	  0.157858	
8.51714	  0.486385	  0.561012	  0.151609	
8.58871	  0.472929	  0.582268	  0.151351	
8.66028	  0.492949	  0.599469	  0.159004	
8.73185	  0.533553	  0.620979	  0.172401	
8.80343	  0.580205	  0.648918	  0.187542	
8.875	  0.620183	  0.673625	  0.201067	
8.94657	  0.638061	  0.678980	  0.212950	
9.01815	  0.630454	  0.660944	  0.221578	
9.08972	  0.608520	  0.636899	  0.220445	
9.16129	  0.587741	  0.629520	  0.208446	
9.23286	  0.581879	  0.640866	  0.194665	
9.30444	  0.594120	  0.655345	  0.187744	
9.37601	  0.614145	  0.665951	  0.187052	
9.44758	  0.627290	  0.674457	  0.186307	
9.51915	  0.628331	  0.670466	  0.182586	
9.59073	  0.627835	  0.639947	  0.177212	
9.6623	  0.632481	  0.592395	  0.171053	
9.73387	  0.625398	  0.556497	  0.165502	
9.80544	  0.590012	  0.555531	  0.163790	
9.87702	  0.543838	  0.596330	  0.166928	
9.94859	  0.523869	  0.663217	  0.172131	
10.0202	  0.539475	  0.710483	  0.176230	
10.0917	  0.561729	  0.688709	  0.177560	
10.1633	  0.565545	  0.600514	  0.175803	
10.2349	  0.552194	  0.499345	  0.172265	
10.3065	  0.525293	  0.428889	  0.168722	
10.378	  0.486846	  0.400756	  0.166686	
10.4496	  0.457742	  0.413151	  0.168078	
10.5212	  0.460794	  0.454378	  0.172975	
10.5927	  0.484639	  0.498604	  0.177030	
10.6643	  0.489458	  0.513804	  0.174013	
10.7359	  0.447228	  0.478718	  0.161403	
10.8075	  0.367418	  0.398841	  0.142812	
10.879	  0.281839	  0.301022	  0.123740	
10.9506	  0.207653	  0.205387	  0.106203	
